<svg width="293" height="196" viewBox="0 0 293 196" fill="none" xmlns="http://www.w3.org/2000/svg">
<g clip-path="url(#clip0_113_302)">
<path d="M157.116 94.8043H49.8949C22.3387 94.8043 0 117.219 0 144.87V145.935C0 173.585 22.3387 196 49.8949 196H157.116C184.672 196 207.011 173.585 207.011 145.935V144.87C207.011 117.219 184.672 94.8043 157.116 94.8043Z" fill="#CFE0F0"/>
<path d="M227.712 64.9783H151.277C115.22 64.9783 85.9891 94.3085 85.9891 130.489C85.9891 166.67 115.22 196 151.277 196H227.712C263.77 196 293 166.67 293 130.489C293 94.3085 263.77 64.9783 227.712 64.9783Z" fill="#CFE0F0"/>
<path d="M133.761 155.522C176.561 155.522 211.257 120.707 211.257 77.7609C211.257 34.8147 176.561 0 133.761 0C90.9608 0 56.2645 34.8147 56.2645 77.7609C56.2645 120.707 90.9608 155.522 133.761 155.522Z" fill="#CFE0F0"/>
</g>
<defs>
<clipPath id="clip0_113_302">
<rect width="293" height="196" fill="white"/>
</clipPath>
</defs>
</svg>
