<svg width="143" height="144" viewBox="0 0 143 144" fill="none" xmlns="http://www.w3.org/2000/svg">
<path d="M1.70323 47.7861C-1.62263 42.5394 2.03966 35.6692 8.24954 35.5058L44.55 34.5501C46.8585 34.4894 49.0281 33.434 50.501 31.6555L73.6623 3.68777C77.6245 -1.09664 85.2901 0.263417 87.3645 6.11885L99.4908 40.3474C100.262 42.5241 101.936 44.2614 104.083 45.1126L137.839 58.4978C143.614 60.7876 144.689 68.4983 139.761 72.2806L110.955 94.3906C109.123 95.7967 107.988 97.9257 107.842 100.23L105.543 136.471C105.15 142.67 98.1488 146.076 93.0288 142.558L63.0994 121.994C61.1961 120.686 58.8206 120.265 56.5836 120.838L21.4067 129.85C15.389 131.392 9.98681 125.786 11.7503 119.83L22.0589 85.0105C22.7145 82.7963 22.3812 80.4067 21.1449 78.4563L1.70323 47.7861Z" fill="#FFDC83"/>
</svg>
