<svg width="52" height="38" viewBox="0 0 52 38" fill="none" xmlns="http://www.w3.org/2000/svg">
<g clip-path="url(#clip0_113_338)">
<path d="M2.4186 21.4516C1.08285 21.4516 -7.57191e-07 20.354 -7.89147e-07 19C-8.21102e-07 17.646 1.08285 16.5484 2.4186 16.5484L2.4186 21.4516ZM37.9893 17.2665C38.9339 18.2238 38.9339 19.7762 37.9893 20.7335L22.5974 36.3355C21.6528 37.2929 20.1215 37.2929 19.177 36.3355C18.2324 35.3781 18.2324 33.8259 19.177 32.8684L32.8587 19L19.177 5.13157C18.2324 4.17416 18.2324 2.62188 19.177 1.66448C20.1215 0.707057 21.6528 0.707057 22.5974 1.66448L37.9893 17.2665ZM2.4186 16.5484L36.2791 16.5484L36.2791 21.4516L2.4186 21.4516L2.4186 16.5484Z" fill="#A6BBD5"/>
<path d="M52 19C52 22.0465 49.5636 24.5161 46.5581 24.5161C43.5527 24.5161 41.1163 22.0465 41.1163 19C41.1163 15.9535 43.5527 13.4839 46.5581 13.4839C49.5636 13.4839 52 15.9535 52 19Z" fill="#A7BCD6"/>
</g>
<defs>
<clipPath id="clip0_113_338">
<rect width="38" height="52" fill="white" transform="matrix(-4.37114e-08 1 1 4.37114e-08 0 0)"/>
</clipPath>
</defs>
</svg>
