<svg width="348" height="317" viewBox="0 0 348 317" fill="none" xmlns="http://www.w3.org/2000/svg">
<circle cx="189.318" cy="158.318" r="127.677" transform="rotate(16.2587 189.318 158.318)" fill="url(#paint0_linear_685_598)"/>
<path d="M36.0253 27.2557C37.7808 22.1115 44.474 20.8436 47.9892 24.9894L54.9556 33.2053C56.2624 34.7464 58.1714 35.6477 60.1918 35.6774L70.9623 35.8358C76.3973 35.9157 79.6714 41.8895 76.8148 46.5139L71.1538 55.6781C70.0919 57.3971 69.8246 59.4912 70.4207 61.4219L73.5983 71.7143C75.2018 76.9079 70.5322 81.8677 65.2514 80.58L54.7864 78.0279C52.8233 77.5492 50.7491 77.9421 49.0971 79.1056L40.2905 85.3083C35.8465 88.4382 29.6864 85.5298 29.2793 80.1096L28.4726 69.3681C28.3213 67.3532 27.3066 65.5019 25.6896 64.2903L17.0691 57.8314C12.7191 54.5722 13.5816 47.8149 18.6107 45.7527L28.5772 41.6662C30.4467 40.8996 31.8938 39.3625 32.5464 37.4502L36.0253 27.2557Z" fill="#FFF1CD"/>
<defs>
<linearGradient id="paint0_linear_685_598" x1="398.9" y1="310.491" x2="160.537" y2="138.229" gradientUnits="userSpaceOnUse">
<stop stop-color="#7D95B9"/>
<stop offset="1" stop-color="#CFE0F0"/>
</linearGradient>
</defs>
</svg>
