<svg width="210" height="211" viewBox="0 0 210 211" fill="none" xmlns="http://www.w3.org/2000/svg">
<path d="M1.58182 66.0219C-1.74404 60.7752 1.91826 53.905 8.12814 53.7415L67.2726 52.1845C69.581 52.1238 71.7506 51.0684 73.2235 49.2899L110.96 3.72204C114.922 -1.06237 122.588 0.297694 124.662 6.15313L144.42 61.9217C145.191 64.0984 146.865 65.8357 149.012 66.6869L204.011 88.4954C209.785 90.7852 210.861 98.4959 205.933 102.278L158.999 138.302C157.167 139.708 156.032 141.837 155.886 144.142L152.141 203.188C151.747 209.388 144.746 212.793 139.626 209.275L90.8623 175.771C88.959 174.463 86.5835 174.041 84.3465 174.615L27.0327 189.299C21.015 190.84 15.6128 185.234 17.3763 179.278L34.1722 122.547C34.8277 120.333 34.4945 117.943 33.2581 115.993L1.58182 66.0219Z" fill="#FFF1CD"/>
</svg>
