<svg width="661" height="693" viewBox="0 0 661 693" fill="none" xmlns="http://www.w3.org/2000/svg">
<circle cx="346.5" cy="346.5" r="346.5" fill="url(#paint0_linear_685_597)"/>
<rect x="313" y="445" width="400" height="168" rx="81.5" fill="#F8FBFF"/>
<rect x="410" y="394" width="178" height="77" rx="38.5" fill="#F8FBFF"/>
<circle cx="464.5" cy="427.5" r="81.5" fill="#F8FBFF"/>
<path d="M610.686 49.8846C615.852 48.1919 620.891 52.7755 619.694 58.0776L613.817 84.1185C613.372 86.0895 613.801 88.1566 614.992 89.7883L630.738 111.346C633.944 115.736 631.142 121.945 625.73 122.445L599.147 124.903C597.135 125.089 595.302 126.135 594.118 127.773L578.481 149.409C575.297 153.815 568.526 153.069 566.377 148.076L555.826 123.554C555.027 121.698 553.466 120.277 551.542 119.658L526.132 111.472C520.959 109.805 519.576 103.135 523.66 99.5488L543.722 81.9359C545.24 80.6028 546.109 78.6786 546.103 76.658L546.036 49.9622C546.023 44.5267 551.939 41.1503 556.612 43.9268L579.562 57.5636C581.299 58.5958 583.398 58.827 585.318 58.1978L610.686 49.8846Z" fill="#FFF1CD"/>
<defs>
<linearGradient id="paint0_linear_685_597" x1="693" y1="601.264" x2="268.393" y2="291.983" gradientUnits="userSpaceOnUse">
<stop stop-color="#7D95B9"/>
<stop offset="1" stop-color="#CFE0F0"/>
</linearGradient>
</defs>
</svg>
