<svg width="299" height="193" viewBox="0 0 299 193" fill="none" xmlns="http://www.w3.org/2000/svg">
<rect x="-18" y="97.5203" width="195" height="95" rx="47" fill="#F8FBFF"/>
<rect x="63" y="69.5203" width="195" height="123" rx="61.5" fill="#F8FBFF"/>
<circle cx="108" cy="81.5203" r="73" fill="#F8FBFF"/>
<path d="M241.392 18.2638C244.809 14.0365 251.53 15.1466 253.406 20.2481L259.191 35.98C259.889 37.8764 261.372 39.379 263.259 40.1014L278.913 46.0941C283.989 48.0373 285.01 54.7725 280.738 58.1332L267.564 68.4965C265.976 69.7458 265.005 71.6204 264.901 73.6383L264.039 90.3779C263.759 95.8063 257.669 98.8587 253.153 95.8342L239.226 86.5072C237.547 85.3828 235.464 85.0388 233.513 85.5635L217.326 89.9166C212.077 91.3282 207.292 86.4795 208.773 81.2496L213.34 65.1219C213.89 63.1777 213.574 61.0905 212.472 59.3969L203.33 45.3476C200.365 40.7917 203.498 34.7426 208.93 34.5349L225.679 33.8944C227.698 33.8172 229.586 32.8712 230.856 31.2998L241.392 18.2638Z" fill="#FFF1CD"/>
</svg>
